
        <svg xmlns="http://www.w3.org/2000/svg" xmlns:xlink="http://www.w3.org/1999/xlink" version="1.1" width="3260.8695652173915" 
        height="1041.2429724701228" viewBox="0 0 3260.8695652173915 1041.2429724701228">
			<rect fill="#ffffff" width="3260.8695652173915" height="1041.2429724701228"/>
			<g transform="scale(13.043478260869565) translate(10, 10)">
				<defs id="SvgjsDefs27689"></defs><g id="SvgjsG27690" featureKey="symbolFeature-0" transform="matrix(0.1221747100353241,0,0,0.1221747100353241,17.668295725954515,-1.5552838255905828)" fill="#37aba6"><g xmlns="http://www.w3.org/2000/svg"><g><g><g><path d="M237.6,225.9H16.9c-3.3,0-6-2.7-6-6V35.1c0-3.3,2.7-6,6-6h220.7c3.3,0,6,2.7,6,6v184.8      C243.6,223.2,241,225.9,237.6,225.9z M22.9,213.9h208.7V41.1H22.9V213.9z"></path></g><g><path d="M237.6,84.2H16.9c-3.3,0-6-2.7-6-6s2.7-6,6-6h220.7c3.3,0,6,2.7,6,6S241,84.2,237.6,84.2z"></path></g><g><path d="M47.2,69.7c-7.2,0-13-5.8-13-13c0-7.2,5.8-13,13-13c7.2,0,13,5.8,13,13C60.1,63.9,54.3,69.7,47.2,69.7z M47.2,55.7      c-0.6,0-1,0.4-1,1c0,0.5,0.4,1,1,1c0.5,0,1-0.5,1-1C48.1,56.2,47.7,55.7,47.2,55.7z"></path></g><g><path d="M94.1,69.7c-7.2,0-13-5.8-13-13c0-7.2,5.8-13,13-13c7.2,0,13,5.8,13,13C107.1,63.9,101.3,69.7,94.1,69.7z M94.1,55.7      c-0.5,0-1,0.4-1,1c0,0.5,0.5,1,1,1c0.6,0,1-0.5,1-1C95.1,56.2,94.6,55.7,94.1,55.7z"></path></g><g><path d="M141.1,69.7c-7.2,0-13-5.8-13-13c0-7.2,5.8-13,13-13c7.2,0,13,5.8,13,13C154.1,63.9,148.2,69.7,141.1,69.7z M141.1,55.7      c-0.5,0-1,0.4-1,1c0,0.5,0.4,1,1,1c0.6,0,1-0.5,1-1C142.1,56.2,141.6,55.7,141.1,55.7z"></path></g><g><path d="M396.8,483.8h-27c-3.3,0-6-2.7-6-6v-20.2c-12.1-2.1-23.8-6.5-34.3-12.9l-15.2,15.2c-1.1,1.1-2.7,1.8-4.2,1.8      c0,0,0,0,0,0c-1.6,0-3.1-0.6-4.2-1.8l-19.1-19.1c-2.3-2.3-2.3-6.1,0-8.5L301,418c-7.1-10-12.2-21.4-15.1-33.4h-21.4      c-3.3,0-6-2.7-6-6v-27c0-3.3,2.7-6,6-6h20.2c2.1-12.2,6.5-23.8,12.9-34.3l-15.2-15.2c-2.3-2.3-2.3-6.1,0-8.5l19.1-19.1      c1.1-1.1,2.7-1.8,4.2-1.8c0,0,0,0,0,0c1.6,0,3.1,0.6,4.2,1.8l14.3,14.3c10.1-7.1,21.5-12.3,33.4-15.1v-21.4c0-3.3,2.7-6,6-6h27      c3.3,0,6,2.7,6,6v20.2c12.1,2.1,23.8,6.5,34.3,12.9l15.2-15.2c1.1-1.1,2.7-1.8,4.2-1.8c0,0,0,0,0,0c1.6,0,3.1,0.6,4.2,1.8      l19.1,19.1c2.3,2.3,2.3,6.1,0,8.5l-14.3,14.3c7.1,10,12.2,21.4,15.1,33.4H496c3.3,0,6,2.7,6,6v27c0,3.3-2.7,6-6,6h-20.2      c-2.1,12.1-6.5,23.8-12.9,34.3L478,428c1.1,1.1,1.8,2.7,1.8,4.2s-0.6,3.1-1.8,4.2l-19.1,19.1c-1.1,1.1-2.7,1.8-4.2,1.8      c0,0,0,0,0,0c-1.6,0-3.1-0.6-4.2-1.8l-14.3-14.3c-10,7.1-21.4,12.3-33.4,15.1v21.4C402.8,481.2,400.1,483.8,396.8,483.8z       M375.7,471.8h15v-20.3c0-2.9,2.1-5.4,4.9-5.9c13.6-2.5,26.5-8.4,37.3-17c2.4-1.9,5.8-1.7,8,0.5l13.7,13.7l10.6-10.6l-14.4-14.3      c-2.1-2-2.3-5.3-0.7-7.6c7.9-11.5,12.9-24.7,14.4-38.4c0.3-3,2.9-5.3,6-5.3H490v-15h-20.3c-2.9,0-5.4-2.1-5.9-4.9      c-2.5-13.6-8.4-26.5-17-37.3c-1.9-2.4-1.7-5.8,0.4-8l13.7-13.8L450.4,277L436,291.4c-2,2-5.3,2.3-7.6,0.7      c-11.3-7.8-24.6-12.8-38.3-14.4c-3-0.4-5.3-2.9-5.3-6l0-19.4h-15v20.3c0,2.9-2.1,5.4-4.9,5.9c-13.5,2.5-26.4,8.4-37.3,17      c-2.4,1.9-5.8,1.7-8-0.5l-13.8-13.8l-10.6,10.6l14.4,14.4c2.1,2.1,2.3,5.3,0.7,7.7c-7.8,11.3-12.8,24.5-14.4,38.3      c-0.3,3-2.9,5.3-6,5.3h-19.4v15h20.3c2.9,0,5.4,2.1,5.9,4.9c2.5,13.6,8.4,26.5,17,37.3c1.9,2.4,1.7,5.8-0.5,8l-13.7,13.7      l10.6,10.6l14.4-14.4c2-2,5.3-2.3,7.7-0.7c11.4,7.9,24.6,12.8,38.3,14.4c3,0.3,5.3,2.9,5.3,6V471.8z"></path></g><g><path d="M380.2,424.5c-34.4,0-62.5-28-62.5-62.4s28-62.4,62.5-62.4c34.5,0,62.5,28,62.5,62.4S414.7,424.5,380.2,424.5z       M380.2,311.6c-27.8,0-50.5,22.6-50.5,50.4c0,27.8,22.6,50.4,50.5,50.4c27.8,0,50.5-22.6,50.5-50.4      C430.7,334.3,408,311.6,380.2,311.6z"></path></g><g><path d="M103.9,178.2c-1.5,0-3.1-0.6-4.2-1.8l-20.5-20.6c-2.3-2.3-2.3-6.1,0-8.5l20.5-20.5c2.3-2.3,6.1-2.3,8.5,0s2.3,6.1,0,8.5      l-16.3,16.3l16.3,16.3c2.3,2.3,2.3,6.1,0,8.5C106.9,177.7,105.4,178.2,103.9,178.2z"></path></g><g><path d="M150.7,178.2c-1.5,0-3.1-0.6-4.2-1.8c-2.3-2.3-2.3-6.1,0-8.5l16.3-16.3l-16.3-16.3c-2.3-2.3-2.3-6.1,0-8.5      c2.3-2.3,6.1-2.3,8.5,0l20.5,20.5c2.3,2.3,2.3,6.1,0,8.5l-20.5,20.6C153.7,177.6,152.2,178.2,150.7,178.2z"></path></g><g><path d="M114.4,189.8c-0.7,0-1.5-0.1-2.2-0.4c-3.1-1.2-4.6-4.7-3.4-7.8l27.3-69.4c1.2-3.1,4.7-4.6,7.8-3.4      c3.1,1.2,4.6,4.7,3.4,7.8L120,186C119.1,188.3,116.8,189.8,114.4,189.8z"></path></g><g><path d="M376.8,235c-3.3,0-6-2.7-6-6V119.5H260.8c-3.3,0-6-2.7-6-6s2.7-6,6-6h115.9c3.3,0,6,2.7,6,6V229      C382.8,232.3,380.1,235,376.8,235z"></path></g><g><path d="M376.8,235c-1.8,0-3.4-0.8-4.6-2.1l-20.1-23.7c-2.1-2.5-1.8-6.3,0.7-8.5c2.5-2.1,6.3-1.8,8.5,0.7l15.5,18.3l15.5-18.3      c2.1-2.5,5.9-2.8,8.5-0.7c2.5,2.1,2.8,5.9,0.7,8.5l-20.1,23.7C380.2,234.2,378.5,235,376.8,235C376.8,235,376.8,235,376.8,235z"></path></g><g><path d="M239.4,368.2H123.4c-3.3,0-6-2.7-6-6V246.7c0-3.3,2.7-6,6-6s6,2.7,6,6v109.5h109.9c3.3,0,6,2.7,6,6      S242.7,368.2,239.4,368.2z"></path></g><g><path d="M143.6,276.4c-1.7,0-3.4-0.7-4.6-2.1L123.5,256l-15.5,18.3c-2.1,2.5-5.9,2.8-8.5,0.7c-2.5-2.1-2.8-5.9-0.7-8.5      l20.1-23.7c1.1-1.3,2.8-2.1,4.6-2.1c0,0,0,0,0,0c1.8,0,3.4,0.8,4.6,2.1l20.1,23.7c2.1,2.5,1.8,6.3-0.7,8.5      C146.3,276,144.9,276.4,143.6,276.4z"></path></g></g></g></g></g><g id="SvgjsG27691" featureKey="nameFeature-0" transform="matrix(1.547093391418457,0,0,1.547093391418457,77.52465073191222,-18.565119141802572)" fill="#37aba6"><path d="M13 40 l-2.72 -10.36 l-1.96 0 l0 -5.04 l3.16 0 l0.76 -0.76 l0 -6.04 l-0.76 -0.76 l-3.16 0 l0 -5.04 l5.24 0 l3.72 3.72 l0 10.2 l-2.16 2.2 l3.08 11.88 l-5.2 0 z M1.6 40 l0 -8.68 l5.04 0 l0 8.68 l-5.04 0 z M1.6 29.64 l0 -17.64 l5.04 0 l0 17.64 l-5.04 0 z M30.679000000000002 40 l0 -5.04 l1.6 0 l0.76 -0.76 l0 -16.4 l-0.76 -0.76 l-1.6 0 l0 -5.04 l3.68 0 l3.72 3.72 l0 20.56 l-3.72 3.72 l-3.68 0 z M25.279000000000003 40 l-3.72 -3.72 l0 -20.56 l3.72 -3.72 l3.68 0 l0 5.04 l-1.6 0 l-0.76 0.76 l0 16.4 l0.76 0.76 l1.6 0 l0 5.04 l-3.68 0 z M48.558 28.52 l0 -5.04 l4.48 0 l0 -11.48 l5.04 0 l0 16.52 l-9.52 0 z M41.838 40 l0 -28 l5.04 0 l0 28 l-5.04 0 z M53.038 40 l0 -9.8 l5.04 0 l0 9.8 l-5.04 0 z M61.037 40 l2.28 -11.2 l8.56 0 l-1.72 -8.56 l-1.36 6.88 l-5.16 0 l3.04 -15.12 l6.96 0 l4.4 21.84 l-10.6 0 l-1.24 6.16 l-5.16 0 z M74.157 40 l-0.92 -4.48 l5.16 0 l0.88 4.48 l-5.12 0 z M93.196 40 l-10.96 -28 l5.44 0 l5.84 14.96 l0 -14.96 l5.04 0 l0 28 l-5.36 0 z M82.316 40 l0 -23.2 l5.04 12.84 l0 10.36 l-5.04 0 z"></path></g><g id="SvgjsG27692" featureKey="sloganFeature-0" transform="matrix(0.5252789855003357,0,0,0.5252789855003357,81.47472100865492,49.260014142681584)" fill="#aaabaa"><path d="M1.26 20 c-0.14 0 -0.26 -0.12 -0.26 -0.26 l0 -11.98 c0 -0.14 0.12 -0.26 0.26 -0.26 l2.88 0 c0.1 0 0.2 0.06 0.24 0.14 l3 7.4 l2.98 -7.4 c0.04 -0.08 0.14 -0.14 0.24 -0.14 l2.88 0 c0.14 0 0.26 0.12 0.26 0.26 l0 11.98 c0 0.14 -0.12 0.26 -0.26 0.26 l-2.34 0 c-0.14 0 -0.26 -0.12 -0.26 -0.26 l0 -6.44 l-2.44 6.2 c-0.04 0.08 -0.14 0.14 -0.22 0.14 l-1.68 0 c-0.1 0 -0.2 -0.06 -0.24 -0.14 l-2.46 -6.2 l0 6.44 c0 0.14 -0.12 0.26 -0.26 0.26 l-2.32 0 z M15.74 20 l0 -11.98 c0 -0.5 0.1 -0.6 0.26 -0.6 l8.76 0 c0.14 0 0.26 0.1 0.26 0.24 l0 2.26 c0 0.14 -0.12 0.26 -0.26 0.26 l-5.92 0 l0 2.08 l3.74 0 c0.14 0 0.26 0.12 0.26 0.26 l0 2.24 c0 0.14 -0.12 0.26 -0.26 0.26 l-3.74 0 l0 2.14 l5.9 0 c0.14 0 0.26 0.12 0.26 0.26 l0 2.24 c0 0.14 -0.12 0.26 -0.26 0.26 l-8.74 0 c-0.16 0 -0.26 -0.12 -0.26 0.08 z M27.28 20 c-0.16 0 -0.26 -0.12 -0.26 -0.26 l0 -11.98 c0 -0.14 0.1 -0.26 0.26 -0.26 l4.88 0 c1.52 0 2.72 0.38 3.56 1.16 c1.24 1.12 1.66 3.24 1.06 4.8 c-0.22 0.56 -0.6 1.08 -1.08 1.46 c-0.28 0.22 -0.58 0.38 -0.88 0.54 c0.86 1.36 2.16 4.12 2.16 4.12 c0.02 0.04 0.06 0.1 0.06 0.16 c0 0.14 -0.12 0.26 -0.26 0.26 l-2.96 0 c-0.08 0 -0.18 -0.06 -0.22 -0.14 l-1.74 -3.82 c-0.62 0.04 -1.1 0.02 -1.74 0.02 l0 3.68 c0 0.14 -0.12 0.26 -0.26 0.26 l-2.58 0 z M30.119999999999997 13.280000000000001 c0 0 2.52 0.28 3.4 -0.3 c0.34 -0.22 0.54 -0.76 0.54 -1.16 c-0.02 -0.44 -0.24 -0.9 -0.6 -1.18 c-0.38 -0.32 -1.32 -0.42 -1.8 -0.42 l-1.54 0.04 l0 3.02 z M39.32 20 c-0.14 0 -0.26 -0.12 -0.26 -0.26 l0 -11.98 c0 -0.14 0.12 -0.26 0.26 -0.26 l2.36 0 c0.08 0 0.16 0.04 0.22 0.1 l4.6 7.1 l0 -6.94 c0 -0.14 0.12 -0.26 0.26 -0.26 l2.46 0 c0.14 0 0.26 0.12 0.26 0.26 l0 11.98 c0 0.14 -0.12 0.26 -0.26 0.26 l-2.36 0 c-0.08 0 -0.16 -0.04 -0.22 -0.1 l-4.58 -7.06 l0 6.9 c0 0.14 -0.12 0.26 -0.26 0.26 l-2.48 0 z M62.22 20.12 c-0.96 0 -1.92 -0.18 -2.84 -0.54 c-0.92 -0.34 -1.74 -0.84 -2.42 -1.44 c-0.08 -0.08 -0.1 -0.2 -0.06 -0.3 l0.7 -2.38 c0.04 -0.08 0.1 -0.14 0.18 -0.14 c0.08 -0.02 0.16 0 0.22 0.06 c1.06 1 2.26 1.9 3.76 1.98 c0.4 0.02 0.84 0.04 1.22 -0.08 c1.18 -0.38 0.68 -1.58 -0.2 -1.94 c-0.3 -0.12 -0.72 -0.26 -1.26 -0.42 c-0.8 -0.22 -1.46 -0.46 -1.96 -0.7 c-0.54 -0.24 -1 -0.62 -1.4 -1.12 c-0.38 -0.52 -0.58 -1.2 -0.58 -2.02 c0 -0.78 0.2 -1.46 0.6 -2.04 s0.96 -1.04 1.66 -1.34 s1.52 -0.46 2.44 -0.46 c0.82 0 1.62 0.12 2.42 0.38 c0.78 0.24 1.48 0.58 2.1 0.98 c0.1 0.08 0.14 0.2 0.08 0.32 l-0.66 2.24 c-0.02 0.08 -0.08 0.12 -0.16 0.14 c-0.06 0.02 -0.14 0.02 -0.2 -0.02 c-0.9 -0.56 -1.8 -1.24 -2.86 -1.38 c-0.7 -0.1 -1.76 -0.06 -2 0.78 c-0.3 1.08 1.28 1.36 2 1.58 c0.8 0.24 1.46 0.48 1.98 0.72 c0.54 0.26 1.02 0.66 1.4 1.16 c0.4 0.52 0.6 1.22 0.6 2.06 c0 0.82 -0.22 1.52 -0.64 2.12 c-0.4 0.6 -0.98 1.04 -1.7 1.36 c-0.72 0.28 -1.52 0.44 -2.42 0.44 z M72.22 20 c-0.14 0 -0.24 -0.12 -0.24 -0.26 l0 -9.44 l-2.74 0 c-0.14 0 -0.26 -0.1 -0.26 -0.24 l0 -2.3 c0 -0.14 0.12 -0.26 0.26 -0.26 l8.58 0 c0.16 0 0.26 0.12 0.26 0.26 l0 2.3 c0 0.14 -0.1 0.24 -0.26 0.24 l-2.74 0 l0 9.44 c0 0.14 -0.12 0.26 -0.26 0.26 l-2.6 0 z M79.14 20 c-0.08 0 -0.16 -0.04 -0.2 -0.12 c-0.06 -0.06 -0.06 -0.16 -0.04 -0.24 l4.66 -11.98 c0.04 -0.1 0.14 -0.16 0.24 -0.16 l2.68 0 c0.1 0 0.2 0.06 0.24 0.16 l4.58 11.98 c0.02 0.08 0.02 0.16 -0.04 0.24 c-0.04 0.08 -0.12 0.12 -0.2 0.12 l-2.78 0 c-0.1 0 -0.2 -0.06 -0.24 -0.16 l-0.74 -1.84 l-4.5 0.02 l-0.74 1.82 c-0.04 0.1 -0.14 0.16 -0.24 0.16 l-2.68 0 z M83.61999999999999 15.5 l2.88 0 l-1.44 -4.24 z M98.21999999999998 20 c-1.18 0 -2.26 -0.28 -3.22 -0.84 c-0.96 -0.58 -1.72 -1.36 -2.26 -2.34 s-0.82 -2.08 -0.82 -3.3 c0 -1.18 0.28 -2.28 0.84 -3.26 c0.56 -0.96 1.34 -1.74 2.3 -2.3 c0.98 -0.56 2.08 -0.84 3.24 -0.84 c0.88 0 1.74 0.2 2.58 0.56 c0.84 0.38 1.56 0.88 2.16 1.52 c0.08 0.1 0.08 0.24 0 0.34 l-1.9 1.56 c-0.06 0.06 -0.12 0.1 -0.2 0.1 s-0.16 -0.04 -0.2 -0.1 c-1.02 -1.24 -2.66 -1.5 -4.04 -0.64 c-1.2 0.74 -1.64 2.1 -1.58 3.46 c0.06 1.38 1.06 2.56 2.38 2.96 c1.2 0.36 2.38 0.08 3.24 -0.84 c0.06 -0.04 0.12 -0.08 0.2 -0.06 c0.08 0 0.14 0.02 0.18 0.08 l1.94 1.36 c0.08 0.1 0.08 0.24 0 0.34 c-0.64 0.68 -1.4 1.24 -2.24 1.64 c-0.86 0.4 -1.74 0.6 -2.6 0.6 z M105.38 20 c-0.14 0 -0.26 -0.12 -0.26 -0.26 l0 -11.98 c0 -0.14 0.12 -0.26 0.26 -0.26 l2.6 0 c0.14 0 0.26 0.12 0.26 0.26 l0 3.54 l3.62 -3.72 c0.06 -0.04 0.12 -0.08 0.2 -0.08 l3.02 0 c0.1 0 0.2 0.06 0.24 0.14 c0.04 0.1 0.02 0.2 -0.04 0.28 l-4.04 4.32 l4.5 7.34 c0.04 0.04 0.06 0.1 0.06 0.16 c0 0.14 -0.12 0.26 -0.26 0.26 l-3.12 0 c-0.08 0 -0.16 -0.04 -0.2 -0.12 l-3.3 -5.58 l-0.68 0.6 l0 4.84 c0 0.14 -0.12 0.26 -0.26 0.26 l-2.6 0 z  M123.46 20 c-0.16 0 -0.26 -0.12 -0.26 -0.26 l0 -11.98 c0 -0.14 0.1 -0.26 0.26 -0.26 l4.54 0 c1.2 0 2.3 0.26 3.26 0.8 c0.96 0.52 1.7 1.26 2.24 2.22 c0.52 0.94 0.8 2.02 0.8 3.22 c0 1.22 -0.28 2.3 -0.82 3.24 c-0.54 0.96 -1.3 1.7 -2.28 2.22 c-0.96 0.54 -2.08 0.8 -3.3 0.8 l-4.44 0 z M126.29999999999998 17.2 l1.76 0 c0.58 0 1.12 -0.14 1.58 -0.42 c0.46 -0.3 0.84 -0.7 1.1 -1.22 s0.4 -1.12 0.4 -1.8 c0 -0.66 -0.14 -1.28 -0.42 -1.8 c-0.28 -0.54 -0.66 -0.94 -1.14 -1.24 c-0.48 -0.28 -1.04 -0.44 -1.64 -0.44 l-1.64 0 l0 6.92 z M136.29999999999998 20 l0 -11.98 c0 -0.5 0.1 -0.6 0.26 -0.6 l8.76 0 c0.14 0 0.26 0.1 0.26 0.24 l0 2.26 c0 0.14 -0.12 0.26 -0.26 0.26 l-5.92 0 l0 2.08 l3.74 0 c0.14 0 0.26 0.12 0.26 0.26 l0 2.24 c0 0.14 -0.12 0.26 -0.26 0.26 l-3.74 0 l0 2.14 l5.9 0 c0.14 0 0.26 0.12 0.26 0.26 l0 2.24 c0 0.14 -0.12 0.26 -0.26 0.26 l-8.74 0 c-0.16 0 -0.26 -0.12 -0.26 0.08 z M151.83999999999997 20 c-0.1 0 -0.2 -0.06 -0.24 -0.16 l-4 -12 c-0.04 -0.08 -0.02 -0.16 0.02 -0.24 c0.06 -0.06 0.14 -0.1 0.22 -0.1 l2.8 0 c0.1 0 0.2 0.06 0.24 0.18 l2.38 7.82 l2.4 -7.82 c0.04 -0.12 0.14 -0.18 0.24 -0.18 l2.68 0 c0.08 0 0.16 0.04 0.22 0.1 c0.04 0.08 0.06 0.16 0.02 0.24 l-4.06 12 c-0.04 0.1 -0.12 0.16 -0.24 0.16 l-2.68 0 z M160.83999999999997 20 l0 -11.98 c0 -0.5 0.1 -0.6 0.26 -0.6 l8.76 0 c0.14 0 0.26 0.1 0.26 0.24 l0 2.26 c0 0.14 -0.12 0.26 -0.26 0.26 l-5.92 0 l0 2.08 l3.74 0 c0.14 0 0.26 0.12 0.26 0.26 l0 2.24 c0 0.14 -0.12 0.26 -0.26 0.26 l-3.74 0 l0 2.14 l5.9 0 c0.14 0 0.26 0.12 0.26 0.26 l0 2.24 c0 0.14 -0.12 0.26 -0.26 0.26 l-8.74 0 c-0.16 0 -0.26 -0.12 -0.26 0.08 z M172.37999999999997 20 c-0.14 0 -0.26 -0.12 -0.26 -0.26 l0 -11.98 c0 -0.14 0.12 -0.26 0.26 -0.26 l2.6 0 c0.14 0 0.26 0.12 0.26 0.26 l0 9.36 l4.5 0 c0.14 0 0.26 0.12 0.26 0.26 l0 2.36 c0 0.14 -0.12 0.26 -0.26 0.26 l-7.36 0 z M187.63999999999996 20 c-1.2 0 -2.3 -0.28 -3.26 -0.84 c-0.98 -0.56 -1.76 -1.36 -2.34 -2.32 c-0.56 -0.98 -0.84 -2.1 -0.84 -3.3 c0 -1.18 0.28 -2.28 0.84 -3.26 c0.58 -0.98 1.34 -1.76 2.32 -2.32 s2.08 -0.84 3.28 -0.84 c1.18 0 2.28 0.28 3.26 0.84 s1.76 1.34 2.32 2.32 c0.58 0.98 0.86 2.08 0.86 3.26 c0 1.2 -0.28 2.3 -0.86 3.28 c-0.56 0.98 -1.34 1.76 -2.32 2.34 c-0.98 0.56 -2.08 0.84 -3.26 0.84 z M187.67999999999995 17.12 c0.58 0 1.12 -0.16 1.6 -0.46 c0.5 -0.32 0.9 -0.74 1.18 -1.3 c0.3 -0.54 0.44 -1.16 0.44 -1.82 c0 -0.64 -0.14 -1.26 -0.44 -1.8 c-0.28 -0.54 -0.68 -0.96 -1.18 -1.28 c-0.48 -0.3 -1.02 -0.46 -1.6 -0.46 c-0.6 0 -1.14 0.16 -1.64 0.46 c-0.52 0.32 -0.92 0.74 -1.22 1.28 c-0.3 0.56 -0.44 1.16 -0.44 1.8 c0 0.66 0.14 1.28 0.44 1.82 c0.32 0.54 0.72 0.98 1.22 1.28 c0.5 0.32 1.04 0.48 1.64 0.48 z M196.31999999999996 20 c-0.14 0 -0.24 -0.12 -0.24 -0.26 l0 -11.98 c0 -0.14 0.1 -0.26 0.24 -0.26 l4.9 0 c1.52 0 2.72 0.38 3.56 1.16 c1.24 1.12 1.66 3.24 1.06 4.8 c-0.22 0.56 -0.6 1.08 -1.08 1.46 c-1.62 1.26 -3.64 1.14 -5.58 1.14 l0 3.68 c0 0.14 -0.12 0.26 -0.26 0.26 l-2.6 0 z M199.17999999999995 13.280000000000001 c0 0 2.52 0.28 3.4 -0.3 c0.34 -0.22 0.54 -0.76 0.54 -1.16 c-0.02 -0.44 -0.24 -0.9 -0.6 -1.18 c-0.38 -0.32 -1.32 -0.42 -1.8 -0.42 l-1.54 0.04 l0 3.02 z M208.13999999999996 20 l0 -11.98 c0 -0.5 0.1 -0.6 0.26 -0.6 l8.76 0 c0.14 0 0.26 0.1 0.26 0.24 l0 2.26 c0 0.14 -0.12 0.26 -0.26 0.26 l-5.92 0 l0 2.08 l3.74 0 c0.14 0 0.26 0.12 0.26 0.26 l0 2.24 c0 0.14 -0.12 0.26 -0.26 0.26 l-3.74 0 l0 2.14 l5.9 0 c0.14 0 0.26 0.12 0.26 0.26 l0 2.24 c0 0.14 -0.12 0.26 -0.26 0.26 l-8.74 0 c-0.16 0 -0.26 -0.12 -0.26 0.08 z M219.67999999999995 20 c-0.16 0 -0.26 -0.12 -0.26 -0.26 l0 -11.98 c0 -0.14 0.1 -0.26 0.26 -0.26 l4.88 0 c1.52 0 2.72 0.38 3.56 1.16 c1.24 1.12 1.66 3.24 1.06 4.8 c-0.22 0.56 -0.6 1.08 -1.08 1.46 c-0.28 0.22 -0.58 0.38 -0.88 0.54 c0.86 1.36 2.16 4.12 2.16 4.12 c0.02 0.04 0.06 0.1 0.06 0.16 c0 0.14 -0.12 0.26 -0.26 0.26 l-2.96 0 c-0.08 0 -0.18 -0.06 -0.22 -0.14 l-1.74 -3.82 c-0.62 0.04 -1.1 0.02 -1.74 0.02 l0 3.68 c0 0.14 -0.12 0.26 -0.26 0.26 l-2.58 0 z M222.51999999999995 13.280000000000001 c0 0 2.52 0.28 3.4 -0.3 c0.34 -0.22 0.54 -0.76 0.54 -1.16 c-0.02 -0.44 -0.24 -0.9 -0.6 -1.18 c-0.38 -0.32 -1.32 -0.42 -1.8 -0.42 l-1.54 0.04 l0 3.02 z"></path></g>
			</g>
		</svg>
	